<svg xmlns="http://www.w3.org/2000/svg" viewBox="0 0 129.88 81.3"><defs><style>.cls-1{fill:#fff;fill-rule:evenodd;}.cls-2{fill:none;stroke:#fff;stroke-miterlimit:10;stroke-width:2px;}</style></defs><g id="レイヤー_2" data-name="レイヤー 2"><g id="レイヤー_1-2" data-name="レイヤー 1"><g id="レイヤー_2-2" data-name="レイヤー 2"><g id="Layer_1" data-name="Layer 1"><path id="パス_1696" data-name="パス 1696" class="cls-1" d="M88.81,30.14a4,4,0,0,1,3.94,3.94V64.55a4,4,0,0,1-3.94,3.94H58.47L47.68,81.3V68.49h-5.4a4,4,0,0,1-3.94-3.94V42.28H51.47a6.89,6.89,0,0,0,6.88-6.87V30.13ZM78,45.8a2.64,2.64,0,1,0,2.64,2.64A2.64,2.64,0,0,0,78,45.8Zm-23.08,0a2.64,2.64,0,1,0,2.64,2.64h0a2.64,2.64,0,0,0-2.64-2.64Zm11.54,0a2.64,2.64,0,1,0,2.64,2.64h0a2.64,2.64,0,0,0-2.64-2.64Z"/><path id="パス_1697" data-name="パス 1697" class="cls-2" d="M51.47,1a4,4,0,0,1,4,3.94V35.41a4,4,0,0,1-4,3.94H21.14L10.34,52.16V39.35H4.94A4,4,0,0,1,1,35.41V4.94A4,4,0,0,1,4.94,1Z"/><path id="パス_1698" data-name="パス 1698" class="cls-1" d="M16.5,16.8a2.64,2.64,0,1,0,2.64,2.64A2.64,2.64,0,0,0,16.5,16.8Z"/><path id="パス_1699" data-name="パス 1699" class="cls-1" d="M39.58,16.8a2.64,2.64,0,1,0,2.64,2.64,2.64,2.64,0,0,0-2.64-2.64Z"/><path id="パス_1700" data-name="パス 1700" class="cls-1" d="M28,16.8a2.64,2.64,0,1,0,2.64,2.64A2.64,2.64,0,0,0,28,16.8Z"/><path id="パス_1701" data-name="パス 1701" class="cls-1" d="M109.75,47.8l10.79,12.81V47.8h5.4a3.93,3.93,0,0,0,3.94-3.94V13.4a4,4,0,0,0-3.94-3.94H79.41a4,4,0,0,0-3.93,3.94V27.21H88.82a6.88,6.88,0,0,1,6.87,6.87V47.8ZM115.28,25a2.64,2.64,0,1,1-2.64,2.64A2.64,2.64,0,0,1,115.28,25Zm-11.54,0a2.64,2.64,0,1,1-2.64,2.64A2.64,2.64,0,0,1,103.74,25Z"/></g></g></g></g></svg>