<svg xmlns="http://www.w3.org/2000/svg" viewBox="0 0 375.66 344.33"><defs><style>.cls-1{fill:#fff;fill-rule:evenodd;}</style></defs><g id="レイヤー_2" data-name="レイヤー 2"><g id="Layer_1" data-name="Layer 1"><path class="cls-1" d="M182.83,5a5,5,0,0,1,10,0V35a5,5,0,0,1-10,0V5ZM311.1,73.28a5,5,0,0,1,5,8.64l-26,15a5,5,0,0,1-5-8.63l26-15ZM256.11,22a5,5,0,0,1,8.63,5l-15,26a5,5,0,0,1-8.63-5l15-26ZM59.6,81.92a5,5,0,0,1,5-8.64l26,15a5,5,0,0,1-5,8.63l-26-15Zm51.31-55a5,5,0,0,1,8.64-5l15,26a5,5,0,0,1-8.63,5Z"/><path class="cls-1" d="M39.69,106.8H6.63A6.66,6.66,0,0,0,0,113.43V267.49A6.59,6.59,0,0,0,1.72,272l.23.22a6.62,6.62,0,0,0,4.68,1.95H39.69a6.6,6.6,0,0,0,4.68-1.93l0,0a6.6,6.6,0,0,0,1.93-4.68V113.43a6.59,6.59,0,0,0-2-4.68v0a6.6,6.6,0,0,0-4.68-1.93ZM182.36,319.72l-.17-.17-54.94-54.93a5.78,5.78,0,1,1,8.18-8.18l54.94,54.94,16.79,16.79a14.61,14.61,0,0,0,10.36,4.28v0a14.64,14.64,0,0,0,10.36-4.25h0a14.69,14.69,0,0,0,.51-20.19l-.09-.09-.15-.15-47.83-47.83a5.78,5.78,0,1,1,8.18-8.18l47.82,47.83h0l7.28,7.28a14.68,14.68,0,0,0,20.71,0h0a14.65,14.65,0,0,0,4.28-10.36h0a14.57,14.57,0,0,0-4.26-10.35v0l-.89-.89a2.81,2.81,0,0,1-.31-.29L209,230.82a5.78,5.78,0,0,1,8.18-8.18l53.41,53.41A14.67,14.67,0,0,0,293,257.64a13.9,13.9,0,0,0-1-1.46,14.39,14.39,0,0,0-1.2-1.35l-76.49-76.52a22.46,22.46,0,0,0-23.06-5.73L150,185.23a33.81,33.81,0,0,1-33-7.07L100.87,164a5.88,5.88,0,0,1-.88-.85,5.78,5.78,0,0,1,.72-8.14c10.26-8.61,25.05-18.2,40.68-28.34l3.41-2.21L92,132.71l-.88.09H57.89v121l103,85.94.38.34a14.61,14.61,0,0,0,10.36,4.26v0A14.69,14.69,0,0,0,182,340.06l0,0a14.67,14.67,0,0,0,.51-20.2l-.12-.12ZM317.77,142.41v98.94L300,247.8c-.34-.38-.69-.75-1-1.11l-76.49-76.52a34,34,0,0,0-34.63-8.62L146.61,174.2a22.39,22.39,0,0,1-22-4.72l-11.22-9.85c9.39-7.17,21.54-15.06,34.27-23.32,12.3-8,25.13-16.29,36.61-24.68,13.26-9.69,30.91.68,57.66,16.4,6.15,3.61,12.73,7.48,19.63,11.33,3,1.68,13.73,2.82,26.26,3.23,9.67.32,20.64.29,29.94-.18ZM369,106.8H336a6.66,6.66,0,0,0-6.62,6.63V267.49a6.59,6.59,0,0,0,1.72,4.46l.23.22a6.61,6.61,0,0,0,4.67,1.95H369a6.6,6.6,0,0,0,4.68-1.93l0,0a6.6,6.6,0,0,0,1.93-4.68V113.43a6.63,6.63,0,0,0-2-4.68v0A6.6,6.6,0,0,0,369,106.8Z"/></g></g></svg>